<?xml version="1.0" encoding="UTF-8"?>
<svg id="Layer_2" data-name="Layer 2" xmlns="http://www.w3.org/2000/svg" version="1.1" viewBox="0 0 913.4 309.5">
  <defs>
    <style>
      .cls-1 {
        fill: #000;
        stroke-width: 0px;
      }
    </style>
  </defs>
  <g>
    <path class="cls-1" d="M441.9,147.3c.3,1.6.4,3.2.4,4.8v35.5h-19.4v-34.7c0-2-.3-3.8-.8-5.6-1.3-3.8-3.5-6.8-6.7-9.2-3.2-2.4-6.8-3.5-10.9-3.5s-9.4,1.8-13.1,5.4c-3.6,3.6-5.4,7.9-5.4,13s.8,6.5,2.5,9.3c1.6,2.8,3.9,5,6.7,6.7,2.8,1.6,5.9,2.5,9.3,2.5,5.5,0,10-2,13.5-6v22.9c-4.4,1.7-8.9,2.6-13.5,2.6-10.4,0-19.4-3.7-26.8-11.1-7.4-7.4-11.1-16.3-11.1-26.8s3.7-19.4,11.1-26.8,16.3-11.1,26.8-11.1,17.7,3.1,24.8,9.2c7.1,6.2,11.3,13.8,12.6,23Z"/>
    <path class="cls-1" d="M481.9,115h9.8v17.7h-7c-3.5,0-6.5,1.2-9,3.7-2.5,2.5-3.8,5.5-3.8,9v42.2h-19.4v-43.3c0-8,2.9-14.9,8.6-20.7,5.7-5.8,12.6-8.6,20.8-8.6Z"/>
    <path class="cls-1" d="M565.8,115l-24.8,38.3,22.2,34.3h-22.1l-12.5-19.2-12.5,19.2h-22l23.4-36.3-23.4-36.3h22.1l13.7,21.3,13.7-21.3h22.1Z"/>
    <path class="cls-1" d="M628.5,179.8c-7.4,7.4-16.3,11.1-26.8,11.1s-19.4-3.7-26.8-11.1c-7.4-7.4-11.1-16.3-11.1-26.8s3.7-19.4,11.1-26.7c7.4-7.4,16.3-11.1,26.8-11.1s19.4,3.7,26.8,11.1c7.4,7.4,11.1,16.3,11.1,26.7s-3.7,19.4-11.1,26.8ZM601.7,207.9c3.3,0,6.3-.9,9.1-2.7,2.8-1.8,4.8-4.1,6.2-7h18.8c-1.7,7.9-5.7,14.4-12.1,19.6-6.3,5.2-13.7,7.8-22,7.8s-15.6-2.6-22-7.8c-6.4-5.2-10.4-11.7-12-19.6h18.8c.9,1.9,2.1,3.5,3.6,5,1.5,1.5,3.3,2.6,5.3,3.4,2,.8,4.1,1.2,6.4,1.2ZM614.7,140c-3.6-3.6-7.9-5.4-13-5.4s-9.4,1.8-13.1,5.4c-3.6,3.6-5.4,7.9-5.4,13s1.8,9.5,5.4,13.1c3.6,3.6,8,5.4,13.1,5.4s9.4-1.8,13-5.4c3.6-3.6,5.4-8,5.4-13.1s-1.8-9.4-5.4-13ZM633.5,113c-1.5,1.5-3.3,2.2-5.4,2.2s-3.9-.7-5.4-2.2c-1.5-1.5-2.2-3.3-2.2-5.4s.7-4,2.2-5.4c1.5-1.5,3.3-2.2,5.4-2.2s3.9.7,5.4,2.2c1.5,1.5,2.3,3.3,2.3,5.4s-.8,3.9-2.3,5.4Z"/>
    <path class="cls-1" d="M677.7,115h9.8v17.7h-7c-3.5,0-6.5,1.2-9,3.7-2.5,2.5-3.8,5.5-3.8,9v42.2h-19.4v-43.3c0-8,2.9-14.9,8.6-20.7,5.7-5.8,12.6-8.6,20.8-8.6Z"/>
    <path class="cls-1" d="M766.1,147.3c.3,1.6.4,3.2.4,4.8v35.5h-19.4v-34.7c0-2-.3-3.8-.8-5.6-1.3-3.8-3.5-6.8-6.7-9.2-3.2-2.4-6.8-3.5-10.9-3.5s-9.4,1.8-13.1,5.4c-3.6,3.6-5.4,7.9-5.4,13s.8,6.5,2.5,9.3c1.6,2.8,3.9,5,6.7,6.7,2.8,1.6,5.9,2.5,9.3,2.5,5.5,0,10-2,13.5-6v22.9c-4.4,1.7-8.9,2.6-13.5,2.6-10.4,0-19.4-3.7-26.8-11.1-7.4-7.4-11.1-16.3-11.1-26.8s3.7-19.4,11.1-26.8,16.3-11.1,26.8-11.1,17.7,3.1,24.8,9.2c7.1,6.2,11.3,13.8,12.6,23Z"/>
    <path class="cls-1" d="M798.5,112.9h35.4v74.8h-19.4v-61.5h-15.9v82h-19.6v-82h-5.4v-13.3h5.4c0-8,3-14.9,8.7-20.5,5.7-5.6,12.6-8.4,20.6-8.4h9.8v17.6h-7c-3.3,0-6.1,1.1-8.5,3.3-2.4,2.2-3.7,4.9-4.1,8.1Z"/>
    <path class="cls-1" d="M913.4,115l-24.8,38.3,22.2,34.3h-22.1l-12.5-19.2-12.5,19.2h-22l23.4-36.3-23.4-36.3h22.1l13.7,21.3,13.7-21.3h22.1Z"/>
  </g>
  <g>
    <path class="cls-1" d="M266.7,0l-116.7,277c-8.3,19.6-27.5,32.4-48.8,32.4H0L116.7,32.4C125,12.8,144.2,0,165.5,0h101.2Z"/>
    <path class="cls-1" d="M195.9,308.9c32.3,0,63.3,1.6,93.9-.5,27.5-1.9,48.7-26.6,50.3-53.5,1.7-28-15.5-52.9-41.8-60.7-26.5-7.9-56.1,2.9-67.9,28-13,27.9-22.9,57.2-34.5,86.7h0Z"/>
  </g>
</svg>