<?xml version="1.0" encoding="UTF-8"?>
<svg id="Layer_2" data-name="Layer 2" xmlns="http://www.w3.org/2000/svg" version="1.1" viewBox="0 0 508.8 131.8">
  <defs>
    <style>
      .cls-1 {
        fill: #000;
        stroke-width: 0px;
      }
    </style>
  </defs>
  <g id="Layer_1-2" data-name="Layer 1-2">
    <g>
      <path class="cls-1" d="M70.1,59c.2,1.5.4,3,.4,4.5v33h-18.1v-32.3c0-1.8-.2-3.6-.8-5.2-1.2-3.5-3.2-6.3-6.2-8.5-3-2.2-6.4-3.3-10.1-3.3s-8.8,1.7-12.2,5-5,7.4-5,12.1.8,6.1,2.3,8.7,3.6,4.7,6.2,6.2c2.6,1.5,5.5,2.3,8.7,2.3,5.1,0,9.3-1.9,12.6-5.6v21.3c-4.1,1.6-8.3,2.4-12.6,2.4-9.7,0-18-3.4-24.9-10.3-6.9-6.9-10.4-15.2-10.4-24.9s3.5-18,10.4-24.9c6.9-6.9,15.2-10.4,24.9-10.4s16.5,2.9,23.1,8.6c6.6,5.7,10.5,12.9,11.7,21.5h0Z"/>
      <path class="cls-1" d="M107.4,28.9h9.1v16.5h-6.5c-3.2,0-6,1.1-8.3,3.4-2.3,2.3-3.5,5.1-3.5,8.4v39.3h-18.1v-40.3c0-7.5,2.7-13.9,8-19.3s11.8-8,19.3-8h0Z"/>
      <path class="cls-1" d="M185.4,28.9l-23.1,35.7,20.7,31.9h-20.6l-11.6-17.8-11.6,17.8h-20.4l21.8-33.8-21.8-33.8h20.6l12.7,19.8,12.7-19.8h20.6Z"/>
      <path class="cls-1" d="M243.8,89.1c-6.9,6.9-15.2,10.3-24.9,10.3s-18-3.4-24.9-10.3c-6.9-6.9-10.4-15.2-10.4-24.9s3.4-18,10.4-24.9c6.9-6.9,15.2-10.3,24.9-10.3s18,3.4,24.9,10.3,10.4,15.2,10.4,24.9-3.4,18-10.4,24.9ZM218.8,115.3c3.1,0,5.9-.8,8.5-2.5,2.6-1.7,4.5-3.8,5.7-6.5h17.5c-1.6,7.3-5.3,13.4-11.2,18.2s-12.7,7.2-20.4,7.2-14.6-2.4-20.5-7.2-9.7-10.9-11.2-18.2h17.5c.8,1.8,1.9,3.3,3.4,4.7,1.4,1.4,3.1,2.4,4.9,3.2s3.8,1.1,5.9,1.1c0,0,0,0,0,0ZM230.9,52.1c-3.3-3.3-7.4-5-12.1-5s-8.8,1.7-12.2,5-5.1,7.4-5.1,12.1,1.7,8.8,5.1,12.2,7.4,5.1,12.2,5.1,8.8-1.7,12.1-5.1,5-7.4,5-12.2-1.7-8.8-5-12.1ZM248.4,27c-1.4,1.4-3.1,2.1-5.1,2.1s-3.6-.7-5-2.1-2.1-3-2.1-5.1.7-3.7,2.1-5,3-2.1,5-2.1,3.6.7,5.1,2.1c1.4,1.4,2.1,3,2.1,5s-.7,3.7-2.1,5.1Z"/>
      <path class="cls-1" d="M289.5,28.9h9.1v16.5h-6.5c-3.2,0-6,1.1-8.4,3.4-2.3,2.3-3.5,5.1-3.5,8.4v39.3h-18.1v-40.3c0-7.5,2.7-13.9,8-19.3s11.8-8,19.3-8h0Z"/>
      <path class="cls-1" d="M371.8,59c.2,1.5.4,3,.4,4.5v33h-18.1v-32.3c0-1.8-.2-3.6-.8-5.2-1.2-3.5-3.2-6.3-6.2-8.5-3-2.2-6.4-3.3-10.1-3.3s-8.8,1.7-12.2,5-5,7.4-5,12.1.8,6.1,2.3,8.7,3.6,4.7,6.2,6.2c2.6,1.5,5.5,2.3,8.7,2.3,5.1,0,9.3-1.9,12.6-5.6v21.3c-4.1,1.6-8.3,2.4-12.6,2.4-9.7,0-18-3.4-24.9-10.3s-10.4-15.2-10.4-24.9,3.5-18,10.4-24.9,15.2-10.4,24.9-10.4,16.5,2.9,23.1,8.6c6.6,5.7,10.5,12.9,11.7,21.5h0Z"/>
      <path class="cls-1" d="M402,26.9h32.9v69.6h-18.1v-57.2h-14.8v76.3h-18.2V39.3h-5v-12.3h5c0-7.5,2.8-13.8,8.1-19.1s11.7-7.8,19.2-7.8h9.1v16.3h-6.5c-3.1,0-5.7,1-7.9,3-2.2,2-3.5,4.6-3.8,7.5h0Z"/>
      <path class="cls-1" d="M508.8,28.9l-23.1,35.7,20.7,31.9h-20.6l-11.6-17.8-11.6,17.8h-20.5l21.8-33.8-21.8-33.8h20.6l12.7,19.8,12.7-19.8h20.6Z"/>
    </g>
  </g>
</svg>